<svg xmlns="http://www.w3.org/2000/svg" width="512" height="512" viewBox="0 0 34.545 34.545">
  <path d="M34.37 13.114c-.042.217-.044.44-.128.646-.498 1.202-1.43 2.197-2.116 3.305-.885 1.414-8.404-1.633-7.435-3.52.366-.7 1.79-2.627 1.897-3.402.098-.69-.818-1.233-1.664-1.303-2.23-.18-5.084-.017-7.453-.002v.002h-.394v-.002c-2.37-.015-5.22-.178-7.453.002-.846.07-1.762.612-1.664 1.304.106.775 1.53 2.703 1.895 3.4.97 1.89-6.55 4.936-7.436 3.522C1.73 15.96.8 14.963.303 13.76c-.084-.204-.087-.43-.13-.645-1.103-4.93 3.15-9.96 9.55-10.475 2.447-.2 4.898-.31 7.352-.354v-.014c.066.002.13.006.197.007l.197-.008v.013c2.453.044 4.904.155 7.35.354 6.403.514 10.655 5.546 9.55 10.474zm-4.395 17.01c.07 1.183-.703 2.148-1.723 2.148H6.292c-1.016 0-1.79-.967-1.72-2.148l.64-10.783c2.327-.544 5.3-1.968 6.38-3.736.6-.985.665-2.094.17-3.055-.124-.24-.358-.616-.627-1.034v-.002l-.015-.032h11.953l-.018.044c-.15.36-.2.638-.173.847-.034.06-.082.138-.108.188-.488.95-.424 2.06.177 3.043 1.08 1.77 4.052 3.19 6.38 3.736l.645 10.784zm-8.502-11.192c-2.302-2.3-6.043-2.3-8.346 0-2.3 2.3-2.3 6.044 0 8.345 2.083 2.083 5.345 2.273 7.65.586l-1.442-1.44c-1.502.92-3.494.74-4.794-.56-1.52-1.52-1.52-3.995.002-5.517 1.52-1.52 3.995-1.52 5.517 0 1.293 1.294 1.476 3.272.567 4.772l1.445 1.445c1.674-2.306 1.477-5.554-.6-7.63z" fill="#FFF"/>
</svg>
